<svg xmlns="http://www.w3.org/2000/svg" xmlns:xlink="http://www.w3.org/1999/xlink" width="500" zoomAndPan="magnify" viewBox="0 0 375 374.999991" height="500" preserveAspectRatio="xMidYMid meet" version="1.0"><defs><g/></defs><g fill="#22c55e" fill-opacity="1"><g transform="translate(77.964843, 213.906226)"><g><path d="M 31.21875 -20.8125 C 31.425781 -20.8125 31.554688 -20.738281 31.609375 -20.59375 C 31.671875 -20.445312 31.664062 -20.300781 31.59375 -20.15625 C 31.519531 -20.007812 31.390625 -19.9375 31.203125 -19.9375 C 31.078125 -19.9375 30.582031 -19.992188 29.71875 -20.109375 C 28.851562 -20.234375 27.664062 -20.28125 26.15625 -20.25 C 25.882812 -18.800781 25.53125 -17.265625 25.09375 -15.640625 C 24.664062 -14.015625 24.148438 -12.394531 23.546875 -10.78125 C 22.953125 -9.175781 22.25 -7.660156 21.4375 -6.234375 C 20.632812 -4.816406 19.726562 -3.5625 18.71875 -2.46875 C 17.582031 -1.207031 16.414062 -0.300781 15.21875 0.25 C 14.03125 0.800781 12.890625 1.046875 11.796875 0.984375 C 10.710938 0.921875 9.726562 0.609375 8.84375 0.046875 C 7.96875 -0.515625 7.273438 -1.273438 6.765625 -2.234375 C 6.253906 -3.191406 5.976562 -4.289062 5.9375 -5.53125 C 5.894531 -6.769531 6.160156 -8.101562 6.734375 -9.53125 C 7.316406 -10.96875 8.269531 -12.429688 9.59375 -13.921875 C 10.832031 -15.296875 12.265625 -16.445312 13.890625 -17.375 C 15.523438 -18.300781 17.273438 -19.03125 19.140625 -19.5625 C 21.003906 -20.09375 22.890625 -20.453125 24.796875 -20.640625 C 25.140625 -23.265625 25.34375 -25.972656 25.40625 -28.765625 C 25.476562 -31.554688 25.359375 -34.34375 25.046875 -37.125 C 24.742188 -39.90625 24.21875 -42.578125 23.46875 -45.140625 C 22.800781 -47.441406 21.972656 -49.289062 20.984375 -50.6875 C 20.003906 -52.082031 18.9375 -53.085938 17.78125 -53.703125 C 16.632812 -54.328125 15.453125 -54.628906 14.234375 -54.609375 C 13.015625 -54.585938 11.820312 -54.304688 10.65625 -53.765625 C 9.5 -53.234375 8.421875 -52.503906 7.421875 -51.578125 C 6.421875 -50.660156 5.570312 -49.628906 4.875 -48.484375 C 4.132812 -47.265625 3.507812 -45.929688 3 -44.484375 C 2.5 -43.046875 2.109375 -41.59375 1.828125 -40.125 C 1.554688 -38.65625 1.382812 -37.238281 1.3125 -35.875 C 1.238281 -34.519531 1.253906 -33.300781 1.359375 -32.21875 C 1.472656 -31.132812 1.664062 -30.28125 1.9375 -29.65625 C 2.101562 -29.945312 2.3125 -30.113281 2.5625 -30.15625 C 2.820312 -30.195312 3.0625 -30.148438 3.28125 -30.015625 C 3.507812 -29.890625 3.671875 -29.707031 3.765625 -29.46875 C 3.859375 -29.226562 3.828125 -28.96875 3.671875 -28.6875 C 3.453125 -28.25 3.125 -27.925781 2.6875 -27.71875 C 2.257812 -27.507812 1.828125 -27.488281 1.390625 -27.65625 C 0.960938 -27.820312 0.628906 -28.257812 0.390625 -28.96875 C 0.160156 -29.675781 0.0351562 -30.613281 0.015625 -31.78125 C 0.00390625 -32.945312 0.0859375 -34.25 0.265625 -35.6875 C 0.441406 -37.125 0.722656 -38.609375 1.109375 -40.140625 C 1.492188 -41.679688 1.976562 -43.179688 2.5625 -44.640625 C 3.144531 -46.109375 3.828125 -47.441406 4.609375 -48.640625 C 5.535156 -50.066406 6.585938 -51.269531 7.765625 -52.25 C 8.941406 -53.226562 10.179688 -53.953125 11.484375 -54.421875 C 12.785156 -54.890625 14.097656 -55.085938 15.421875 -55.015625 C 16.742188 -54.941406 18.019531 -54.5625 19.25 -53.875 C 20.476562 -53.1875 21.613281 -52.175781 22.65625 -50.84375 C 23.695312 -49.507812 24.578125 -47.8125 25.296875 -45.75 C 25.921875 -43.957031 26.390625 -42.003906 26.703125 -39.890625 C 27.015625 -37.773438 27.1875 -35.601562 27.21875 -33.375 C 27.25 -31.15625 27.179688 -28.96875 27.015625 -26.8125 C 26.847656 -24.664062 26.59375 -22.648438 26.25 -20.765625 C 27.082031 -20.804688 27.910156 -20.832031 28.734375 -20.84375 C 29.554688 -20.851562 30.382812 -20.84375 31.21875 -20.8125 Z M 18.265625 -2.875 C 19.210938 -3.945312 20.046875 -5.179688 20.765625 -6.578125 C 21.484375 -7.984375 22.097656 -9.460938 22.609375 -11.015625 C 23.117188 -12.566406 23.550781 -14.125 23.90625 -15.6875 C 24.257812 -17.257812 24.53125 -18.75 24.71875 -20.15625 C 22.738281 -20 20.867188 -19.613281 19.109375 -19 C 17.359375 -18.382812 15.765625 -17.59375 14.328125 -16.625 C 12.898438 -15.664062 11.648438 -14.582031 10.578125 -13.375 C 9.234375 -11.851562 8.265625 -10.394531 7.671875 -9 C 7.085938 -7.601562 6.796875 -6.328125 6.796875 -5.171875 C 6.804688 -4.015625 7.039062 -3.003906 7.5 -2.140625 C 7.96875 -1.285156 8.601562 -0.625 9.40625 -0.15625 C 10.207031 0.3125 11.109375 0.546875 12.109375 0.546875 C 13.109375 0.546875 14.140625 0.269531 15.203125 -0.28125 C 16.265625 -0.832031 17.285156 -1.695312 18.265625 -2.875 Z M 18.265625 -2.875 "/></g></g></g><g fill="#22c55e" fill-opacity="1"><g transform="translate(109.116906, 213.906226)"><g><path d="M 13.3125 -21.21875 C 13.488281 -21.375 13.65625 -21.398438 13.8125 -21.296875 C 13.96875 -21.191406 14.054688 -21.050781 14.078125 -20.875 C 14.097656 -20.695312 14 -20.5625 13.78125 -20.46875 C 13.25 -20.257812 12.710938 -20.066406 12.171875 -19.890625 C 11.640625 -19.710938 11.0625 -19.609375 10.4375 -19.578125 C 9.289062 -19.515625 8.226562 -19.710938 7.25 -20.171875 C 6.269531 -20.628906 5.332031 -21.207031 4.4375 -21.90625 C 4.5625 -21.519531 4.6875 -21.140625 4.8125 -20.765625 C 4.945312 -20.390625 5.070312 -20.007812 5.1875 -19.625 C 5.519531 -18.519531 5.613281 -17.582031 5.46875 -16.8125 C 5.320312 -16.050781 5.03125 -15.46875 4.59375 -15.0625 C 4.15625 -14.65625 3.65625 -14.421875 3.09375 -14.359375 C 2.53125 -14.304688 1.976562 -14.4375 1.4375 -14.75 C 0.90625 -15.0625 0.472656 -15.554688 0.140625 -16.234375 C -0.191406 -16.910156 -0.34375 -17.78125 -0.3125 -18.84375 C -0.28125 -19.78125 -0.0976562 -20.738281 0.234375 -21.71875 C 0.578125 -22.695312 1.0625 -23.546875 1.6875 -24.265625 C 1.363281 -24.535156 1.203125 -24.8125 1.203125 -25.09375 C 1.203125 -25.375 1.289062 -25.613281 1.46875 -25.8125 C 1.65625 -26.007812 1.875 -26.128906 2.125 -26.171875 C 2.382812 -26.210938 2.617188 -26.117188 2.828125 -25.890625 C 2.992188 -25.734375 3.128906 -25.5625 3.234375 -25.375 C 3.347656 -25.195312 3.421875 -25.082031 3.453125 -25.03125 C 3.773438 -24.882812 3.960938 -24.613281 4.015625 -24.21875 C 4.523438 -23.507812 5.109375 -22.816406 5.765625 -22.140625 C 6.421875 -21.472656 7.140625 -20.929688 7.921875 -20.515625 C 8.703125 -20.097656 9.535156 -19.914062 10.421875 -19.96875 C 10.941406 -20 11.453125 -20.125 11.953125 -20.34375 C 12.460938 -20.570312 12.914062 -20.863281 13.3125 -21.21875 Z M 0.859375 -18.75 C 0.753906 -17.914062 0.800781 -17.222656 1 -16.671875 C 1.207031 -16.128906 1.5 -15.734375 1.875 -15.484375 C 2.257812 -15.242188 2.65625 -15.140625 3.0625 -15.171875 C 3.46875 -15.210938 3.828125 -15.398438 4.140625 -15.734375 C 4.460938 -16.078125 4.675781 -16.554688 4.78125 -17.171875 C 4.882812 -17.785156 4.800781 -18.539062 4.53125 -19.4375 C 4.375 -20 4.15625 -20.570312 3.875 -21.15625 C 3.59375 -21.738281 3.269531 -22.300781 2.90625 -22.84375 C 2.4375 -22.445312 2.007812 -21.894531 1.625 -21.1875 C 1.25 -20.488281 0.992188 -19.675781 0.859375 -18.75 Z M 0.859375 -18.75 "/></g></g></g><g fill="#22c55e" fill-opacity="1"><g transform="translate(122.364929, 213.906226)"><g><path d="M 21.90625 -21.265625 C 21.976562 -21.453125 22.09375 -21.554688 22.25 -21.578125 C 22.40625 -21.609375 22.546875 -21.5625 22.671875 -21.4375 C 22.804688 -21.320312 22.828125 -21.148438 22.734375 -20.921875 C 22.285156 -19.804688 21.753906 -18.632812 21.140625 -17.40625 C 20.535156 -16.1875 19.875 -15.085938 19.15625 -14.109375 C 18.476562 -13.210938 17.75 -12.492188 16.96875 -11.953125 C 16.195312 -11.421875 15.429688 -11.175781 14.671875 -11.21875 C 13.910156 -11.257812 13.210938 -11.679688 12.578125 -12.484375 C 12.128906 -13.054688 11.757812 -13.757812 11.46875 -14.59375 C 11.1875 -15.425781 10.953125 -16.320312 10.765625 -17.28125 C 10.578125 -18.238281 10.40625 -19.1875 10.25 -20.125 C 10.101562 -21.0625 9.925781 -21.910156 9.71875 -22.671875 C 9.507812 -23.441406 9.242188 -24.054688 8.921875 -24.515625 C 8.609375 -24.984375 8.195312 -25.21875 7.6875 -25.21875 C 7.132812 -25.21875 6.671875 -24.988281 6.296875 -24.53125 C 5.921875 -24.082031 5.609375 -23.472656 5.359375 -22.703125 C 5.109375 -21.929688 4.890625 -21.070312 4.703125 -20.125 C 4.523438 -19.1875 4.363281 -18.226562 4.21875 -17.25 C 4.082031 -16.28125 3.929688 -15.351562 3.765625 -14.46875 C 3.609375 -13.59375 3.414062 -12.832031 3.1875 -12.1875 C 2.96875 -11.550781 2.671875 -11.085938 2.296875 -10.796875 C 1.921875 -10.515625 1.535156 -10.414062 1.140625 -10.5 C 0.742188 -10.582031 0.394531 -10.875 0.09375 -11.375 C -0.195312 -11.882812 -0.363281 -12.601562 -0.40625 -13.53125 C -0.457031 -14.457031 -0.429688 -15.414062 -0.328125 -16.40625 C -0.222656 -17.40625 -0.128906 -18.351562 -0.046875 -19.25 C 0.0351562 -20.15625 0.00390625 -20.929688 -0.140625 -21.578125 C -0.191406 -21.867188 -0.125 -22.082031 0.0625 -22.21875 C 0.257812 -22.363281 0.476562 -22.40625 0.71875 -22.34375 C 0.957031 -22.289062 1.109375 -22.125 1.171875 -21.84375 C 1.253906 -21.40625 1.316406 -20.816406 1.359375 -20.078125 C 1.398438 -19.347656 1.425781 -18.566406 1.4375 -17.734375 C 1.457031 -16.898438 1.472656 -16.101562 1.484375 -15.34375 C 1.503906 -14.582031 1.535156 -13.960938 1.578125 -13.484375 C 1.773438 -14.128906 1.960938 -14.898438 2.140625 -15.796875 C 2.328125 -16.703125 2.53125 -17.648438 2.75 -18.640625 C 2.976562 -19.640625 3.238281 -20.601562 3.53125 -21.53125 C 3.832031 -22.46875 4.179688 -23.304688 4.578125 -24.046875 C 4.984375 -24.785156 5.457031 -25.34375 6 -25.71875 C 6.539062 -26.101562 7.171875 -26.234375 7.890625 -26.109375 C 8.546875 -25.992188 9.054688 -25.664062 9.421875 -25.125 C 9.796875 -24.59375 10.082031 -23.925781 10.28125 -23.125 C 10.476562 -22.332031 10.632812 -21.457031 10.75 -20.5 C 10.875 -19.550781 11.007812 -18.597656 11.15625 -17.640625 C 11.300781 -16.679688 11.5 -15.769531 11.75 -14.90625 C 12.007812 -14.050781 12.378906 -13.320312 12.859375 -12.71875 C 13.453125 -11.96875 14.097656 -11.585938 14.796875 -11.578125 C 15.492188 -11.566406 16.1875 -11.828125 16.875 -12.359375 C 17.570312 -12.890625 18.210938 -13.5625 18.796875 -14.375 C 19.492188 -15.414062 20.101562 -16.53125 20.625 -17.71875 C 21.144531 -18.914062 21.570312 -20.097656 21.90625 -21.265625 Z M 21.90625 -21.265625 "/></g></g></g><g fill="#22c55e" fill-opacity="1"><g transform="translate(144.20497, 213.906226)"><g><path d="M 10.015625 -21.171875 C 10.078125 -21.296875 10.171875 -21.351562 10.296875 -21.34375 C 10.421875 -21.332031 10.523438 -21.285156 10.609375 -21.203125 C 10.691406 -21.117188 10.695312 -21.007812 10.625 -20.875 C 10.59375 -20.84375 10.492188 -20.675781 10.328125 -20.375 C 10.160156 -20.082031 9.960938 -19.75 9.734375 -19.375 C 9.515625 -19 9.316406 -18.671875 9.140625 -18.390625 C 8.410156 -17.265625 7.597656 -16.414062 6.703125 -15.84375 C 5.804688 -15.28125 4.925781 -15.019531 4.0625 -15.0625 C 3.195312 -15.101562 2.421875 -15.453125 1.734375 -16.109375 C 1.054688 -16.765625 0.550781 -17.75 0.21875 -19.0625 C 0.0078125 -19.957031 -0.125 -20.9375 -0.1875 -22 C -0.25 -23.0625 -0.226562 -24.046875 -0.125 -24.953125 C -0.0703125 -25.335938 0.0703125 -25.601562 0.3125 -25.75 C 0.550781 -25.894531 0.804688 -25.929688 1.078125 -25.859375 C 1.347656 -25.785156 1.554688 -25.585938 1.703125 -25.265625 C 1.785156 -25.109375 1.882812 -24.835938 2 -24.453125 C 2.125 -24.066406 2.257812 -23.765625 2.40625 -23.546875 C 2.570312 -23.484375 2.710938 -23.375 2.828125 -23.21875 C 2.941406 -23.0625 3.007812 -22.882812 3.03125 -22.6875 C 3.039062 -22.394531 2.957031 -22.148438 2.78125 -21.953125 C 2.601562 -21.765625 2.382812 -21.65625 2.125 -21.625 C 1.863281 -21.59375 1.59375 -21.664062 1.3125 -21.84375 C 1.28125 -21.40625 1.269531 -20.96875 1.28125 -20.53125 C 1.289062 -20.101562 1.320312 -19.679688 1.375 -19.265625 C 1.53125 -18.148438 1.875 -17.300781 2.40625 -16.71875 C 2.945312 -16.132812 3.582031 -15.820312 4.3125 -15.78125 C 5.050781 -15.738281 5.804688 -15.960938 6.578125 -16.453125 C 7.359375 -16.941406 8.0625 -17.679688 8.6875 -18.671875 C 8.945312 -19.066406 9.179688 -19.472656 9.390625 -19.890625 C 9.609375 -20.304688 9.816406 -20.734375 10.015625 -21.171875 Z M 1.96875 -28.46875 C 1.96875 -28.832031 1.863281 -29.148438 1.65625 -29.421875 C 1.445312 -29.691406 1.207031 -29.828125 0.9375 -29.828125 C 0.644531 -29.828125 0.394531 -29.691406 0.1875 -29.421875 C -0.0195312 -29.148438 -0.125 -28.832031 -0.125 -28.46875 C -0.125 -28.082031 -0.0195312 -27.753906 0.1875 -27.484375 C 0.394531 -27.210938 0.644531 -27.078125 0.9375 -27.078125 C 1.207031 -27.078125 1.445312 -27.210938 1.65625 -27.484375 C 1.863281 -27.753906 1.96875 -28.082031 1.96875 -28.46875 Z M 1.96875 -28.46875 "/></g></g></g><g fill="#22c55e" fill-opacity="1"><g transform="translate(154.164991, 213.906226)"><g><path d="M 39.140625 -20.46875 C 39.191406 -20.144531 39.128906 -19.890625 38.953125 -19.703125 C 38.773438 -19.515625 38.554688 -19.398438 38.296875 -19.359375 C 38.046875 -19.316406 37.804688 -19.363281 37.578125 -19.5 C 37.359375 -19.632812 37.222656 -19.863281 37.171875 -20.1875 C 36.984375 -21.507812 36.503906 -22.609375 35.734375 -23.484375 C 34.960938 -24.359375 34.015625 -25.070312 32.890625 -25.625 C 31.765625 -26.1875 30.550781 -26.644531 29.25 -27 C 29.269531 -22.8125 29.351562 -19.164062 29.5 -16.0625 C 29.65625 -12.96875 29.84375 -10.335938 30.0625 -8.171875 C 30.28125 -6.003906 30.507812 -4.234375 30.75 -2.859375 C 30.988281 -1.492188 31.210938 -0.441406 31.421875 0.296875 C 31.628906 1.046875 31.789062 1.539062 31.90625 1.78125 C 32.03125 2.03125 32.078125 2.117188 32.046875 2.046875 C 32.265625 2.285156 32.359375 2.523438 32.328125 2.765625 C 32.296875 3.015625 32.179688 3.234375 31.984375 3.421875 C 31.796875 3.609375 31.566406 3.710938 31.296875 3.734375 C 31.035156 3.753906 30.796875 3.644531 30.578125 3.40625 C 30.285156 3.070312 30.03125 2.429688 29.8125 1.484375 C 29.601562 0.546875 29.425781 -0.609375 29.28125 -1.984375 C 29.132812 -3.367188 29.015625 -4.875 28.921875 -6.5 C 28.835938 -8.132812 28.769531 -9.816406 28.71875 -11.546875 C 28.675781 -13.285156 28.648438 -14.988281 28.640625 -16.65625 C 28.628906 -18.320312 28.625 -19.867188 28.625 -21.296875 C 28.625 -22.734375 28.632812 -23.960938 28.65625 -24.984375 C 28.675781 -26.003906 28.6875 -26.734375 28.6875 -27.171875 C 27.082031 -27.585938 25.390625 -27.882812 23.609375 -28.0625 C 21.835938 -28.25 20.054688 -28.347656 18.265625 -28.359375 C 16.472656 -28.378906 14.742188 -28.328125 13.078125 -28.203125 C 13.109375 -26.503906 13.125 -24.671875 13.125 -22.703125 C 13.125 -20.734375 13.109375 -18.695312 13.078125 -16.59375 C 13.046875 -14.488281 12.988281 -12.390625 12.90625 -10.296875 C 12.832031 -8.203125 12.722656 -6.171875 12.578125 -4.203125 C 12.429688 -2.242188 12.25 -0.4375 12.03125 1.21875 C 11.976562 1.539062 11.84375 1.769531 11.625 1.90625 C 11.40625 2.039062 11.164062 2.09375 10.90625 2.0625 C 10.644531 2.03125 10.425781 1.914062 10.25 1.71875 C 10.070312 1.53125 10.007812 1.269531 10.0625 0.9375 C 10.375 -1.425781 10.519531 -3.679688 10.5 -5.828125 C 10.476562 -7.972656 10.191406 -10.015625 9.640625 -11.953125 C 9.097656 -13.898438 8.207031 -15.765625 6.96875 -17.546875 C 5.726562 -19.335938 4.050781 -21.054688 1.9375 -22.703125 C 1.601562 -22.960938 1.265625 -23.226562 0.921875 -23.5 C 0.578125 -23.769531 0.320312 -24.050781 0.15625 -24.34375 C -0.0078125 -24.644531 -0.0078125 -24.96875 0.15625 -25.3125 C 0.320312 -25.65625 0.75 -26.019531 1.4375 -26.40625 C 2.09375 -26.769531 2.890625 -27.09375 3.828125 -27.375 C 4.765625 -27.664062 5.753906 -27.914062 6.796875 -28.125 C 7.835938 -28.332031 8.847656 -28.507812 9.828125 -28.65625 C 10.804688 -28.800781 11.675781 -28.910156 12.4375 -28.984375 C 12.4375 -29.597656 12.429688 -30.394531 12.421875 -31.375 C 12.410156 -32.363281 12.394531 -33.460938 12.375 -34.671875 C 12.351562 -35.890625 12.316406 -37.160156 12.265625 -38.484375 C 12.210938 -39.816406 12.140625 -41.144531 12.046875 -42.46875 C 11.953125 -43.789062 11.835938 -45.046875 11.703125 -46.234375 C 11.566406 -47.429688 11.394531 -48.492188 11.1875 -49.421875 C 10.988281 -50.347656 10.753906 -51.082031 10.484375 -51.625 C 10.359375 -51.914062 10.207031 -52.109375 10.03125 -52.203125 C 9.851562 -52.296875 9.703125 -52.382812 9.578125 -52.46875 C 9.304688 -52.644531 9.179688 -52.867188 9.203125 -53.140625 C 9.222656 -53.421875 9.335938 -53.671875 9.546875 -53.890625 C 9.753906 -54.109375 10.003906 -54.21875 10.296875 -54.21875 C 10.585938 -54.226562 10.859375 -54.066406 11.109375 -53.734375 C 11.367188 -53.398438 11.546875 -52.804688 11.640625 -51.953125 C 11.941406 -49.265625 12.1875 -46.660156 12.375 -44.140625 C 12.570312 -41.628906 12.722656 -39.128906 12.828125 -36.640625 C 12.929688 -34.160156 13.007812 -31.628906 13.0625 -29.046875 C 14.71875 -29.203125 16.441406 -29.296875 18.234375 -29.328125 C 20.023438 -29.359375 21.8125 -29.3125 23.59375 -29.1875 C 25.382812 -29.070312 27.085938 -28.835938 28.703125 -28.484375 C 28.722656 -28.929688 28.742188 -29.609375 28.765625 -30.515625 C 28.785156 -31.421875 28.816406 -32.484375 28.859375 -33.703125 C 28.898438 -34.929688 28.945312 -36.242188 29 -37.640625 C 29.0625 -39.046875 29.128906 -40.476562 29.203125 -41.9375 C 29.285156 -43.40625 29.378906 -44.832031 29.484375 -46.21875 C 29.597656 -47.613281 29.722656 -48.90625 29.859375 -50.09375 C 30.003906 -51.289062 30.160156 -52.316406 30.328125 -53.171875 C 30.503906 -54.023438 30.695312 -54.644531 30.90625 -55.03125 C 31.175781 -55.5 31.46875 -55.800781 31.78125 -55.9375 C 32.09375 -56.070312 32.378906 -56.085938 32.640625 -55.984375 C 32.910156 -55.890625 33.113281 -55.734375 33.25 -55.515625 C 33.382812 -55.304688 33.421875 -55.078125 33.359375 -54.828125 C 33.296875 -54.578125 33.085938 -54.363281 32.734375 -54.1875 C 32.335938 -54 31.976562 -53.535156 31.65625 -52.796875 C 31.332031 -52.066406 31.050781 -51.140625 30.8125 -50.015625 C 30.570312 -48.890625 30.363281 -47.644531 30.1875 -46.28125 C 30.007812 -44.914062 29.863281 -43.5 29.75 -42.03125 C 29.644531 -40.570312 29.554688 -39.128906 29.484375 -37.703125 C 29.410156 -36.273438 29.351562 -34.9375 29.3125 -33.6875 C 29.269531 -32.445312 29.242188 -31.363281 29.234375 -30.4375 C 29.234375 -29.507812 29.234375 -28.820312 29.234375 -28.375 C 30.554688 -28.082031 31.773438 -27.738281 32.890625 -27.34375 C 34.015625 -26.957031 35.007812 -26.46875 35.875 -25.875 C 36.738281 -25.28125 37.453125 -24.546875 38.015625 -23.671875 C 38.578125 -22.804688 38.953125 -21.738281 39.140625 -20.46875 Z M 11.46875 -8.5625 C 11.695312 -10.644531 11.878906 -12.796875 12.015625 -15.015625 C 12.148438 -17.234375 12.253906 -19.453125 12.328125 -21.671875 C 12.398438 -23.898438 12.4375 -26.0625 12.4375 -28.15625 C 11.695312 -28.09375 10.847656 -27.992188 9.890625 -27.859375 C 8.941406 -27.734375 7.96875 -27.578125 6.96875 -27.390625 C 5.96875 -27.210938 5.015625 -26.988281 4.109375 -26.71875 C 3.210938 -26.457031 2.4375 -26.148438 1.78125 -25.796875 C 1.132812 -25.441406 0.785156 -25.144531 0.734375 -24.90625 C 0.691406 -24.664062 0.828125 -24.421875 1.140625 -24.171875 C 1.460938 -23.929688 1.867188 -23.617188 2.359375 -23.234375 C 4.078125 -21.867188 5.539062 -20.4375 6.75 -18.9375 C 7.957031 -17.445312 8.945312 -15.847656 9.71875 -14.140625 C 10.5 -12.441406 11.082031 -10.582031 11.46875 -8.5625 Z M 11.46875 -8.5625 "/></g></g></g><g fill="#22c55e" fill-opacity="1"><g transform="translate(197.413082, 213.906226)"><g><path d="M 16.3125 -20.96875 C 16.394531 -21.164062 16.519531 -21.257812 16.6875 -21.25 C 16.851562 -21.238281 16.992188 -21.164062 17.109375 -21.03125 C 17.222656 -20.894531 17.21875 -20.738281 17.09375 -20.5625 C 16.6875 -19.90625 16.265625 -19.238281 15.828125 -18.5625 C 15.390625 -17.894531 14.914062 -17.28125 14.40625 -16.71875 C 13.90625 -16.164062 13.34375 -15.71875 12.71875 -15.375 C 12.09375 -15.039062 11.394531 -14.890625 10.625 -14.921875 C 9.96875 -14.953125 9.425781 -15.128906 9 -15.453125 C 8.582031 -15.785156 8.242188 -16.222656 7.984375 -16.765625 C 7.734375 -17.316406 7.539062 -17.914062 7.40625 -18.5625 C 7.269531 -19.207031 7.15625 -19.863281 7.0625 -20.53125 C 6.976562 -21.195312 6.890625 -21.816406 6.796875 -22.390625 C 6.796875 -22.410156 6.789062 -22.421875 6.78125 -22.421875 C 6.769531 -22.429688 6.765625 -22.445312 6.765625 -22.46875 C 6.753906 -22.40625 6.726562 -22.335938 6.6875 -22.265625 C 6.65625 -22.203125 6.609375 -22.117188 6.546875 -22.015625 C 6.753906 -21.804688 6.847656 -21.5625 6.828125 -21.28125 C 6.816406 -21.007812 6.71875 -20.78125 6.53125 -20.59375 C 6.351562 -20.414062 6.113281 -20.328125 5.8125 -20.328125 C 5.488281 -19.585938 5.15625 -18.84375 4.8125 -18.09375 C 4.476562 -17.351562 4.125 -16.679688 3.75 -16.078125 C 3.375 -15.472656 2.960938 -14.992188 2.515625 -14.640625 C 2.066406 -14.285156 1.566406 -14.132812 1.015625 -14.1875 C 0.421875 -14.226562 -0.0234375 -14.476562 -0.328125 -14.9375 C -0.640625 -15.394531 -0.820312 -15.972656 -0.875 -16.671875 C -0.925781 -17.367188 -0.863281 -18.097656 -0.6875 -18.859375 C -0.519531 -19.628906 -0.25 -20.351562 0.125 -21.03125 C 0.507812 -21.71875 0.976562 -22.28125 1.53125 -22.71875 C 2.09375 -23.15625 2.734375 -23.375 3.453125 -23.375 C 3.867188 -23.375 4.257812 -23.304688 4.625 -23.171875 C 5 -23.046875 5.351562 -22.875 5.6875 -22.65625 C 5.914062 -23.195312 6.171875 -23.566406 6.453125 -23.765625 C 6.742188 -23.972656 7.019531 -23.984375 7.28125 -23.796875 C 7.550781 -23.609375 7.738281 -23.203125 7.84375 -22.578125 C 7.925781 -22.085938 7.984375 -21.53125 8.015625 -20.90625 C 8.046875 -20.289062 8.09375 -19.664062 8.15625 -19.03125 C 8.21875 -18.40625 8.332031 -17.820312 8.5 -17.28125 C 8.675781 -16.738281 8.9375 -16.296875 9.28125 -15.953125 C 9.625 -15.609375 10.09375 -15.421875 10.6875 -15.390625 C 11.382812 -15.359375 12.015625 -15.503906 12.578125 -15.828125 C 13.148438 -16.148438 13.664062 -16.585938 14.125 -17.140625 C 14.582031 -17.691406 14.988281 -18.300781 15.34375 -18.96875 C 15.707031 -19.644531 16.03125 -20.3125 16.3125 -20.96875 Z M 1.203125 -14.765625 C 1.722656 -14.742188 2.195312 -14.941406 2.625 -15.359375 C 3.050781 -15.773438 3.421875 -16.300781 3.734375 -16.9375 C 4.046875 -17.582031 4.3125 -18.238281 4.53125 -18.90625 C 4.757812 -19.582031 4.9375 -20.164062 5.0625 -20.65625 C 4.820312 -20.96875 4.554688 -21.226562 4.265625 -21.4375 C 3.984375 -21.644531 3.691406 -21.769531 3.390625 -21.8125 C 2.898438 -21.875 2.445312 -21.75 2.03125 -21.4375 C 1.625 -21.125 1.257812 -20.703125 0.9375 -20.171875 C 0.613281 -19.648438 0.363281 -19.082031 0.1875 -18.46875 C 0.0078125 -17.851562 -0.078125 -17.265625 -0.078125 -16.703125 C -0.0859375 -16.140625 0.0078125 -15.675781 0.21875 -15.3125 C 0.425781 -14.957031 0.753906 -14.773438 1.203125 -14.765625 Z M 1.203125 -14.765625 "/></g></g></g><g fill="#22c55e" fill-opacity="1"><g transform="translate(213.709113, 213.906226)"><g><path d="M 14.71875 -21 C 14.78125 -21.15625 14.867188 -21.226562 14.984375 -21.21875 C 15.109375 -21.21875 15.207031 -21.171875 15.28125 -21.078125 C 15.363281 -20.992188 15.375 -20.878906 15.3125 -20.734375 C 15.3125 -20.734375 15.210938 -20.550781 15.015625 -20.1875 C 14.828125 -19.832031 14.59375 -19.382812 14.3125 -18.84375 C 14.03125 -18.3125 13.742188 -17.78125 13.453125 -17.25 C 13.171875 -16.726562 12.9375 -16.289062 12.75 -15.9375 C 12.3125 -15.195312 11.820312 -14.421875 11.28125 -13.609375 C 10.75 -12.804688 10.171875 -12.054688 9.546875 -11.359375 C 8.921875 -10.660156 8.242188 -10.097656 7.515625 -9.671875 C 6.597656 -9.160156 5.738281 -8.953125 4.9375 -9.046875 C 4.144531 -9.140625 3.515625 -9.609375 3.046875 -10.453125 C 2.585938 -11.296875 2.390625 -12.578125 2.453125 -14.296875 C 2.492188 -15.234375 2.554688 -15.988281 2.640625 -16.5625 C 2.734375 -17.132812 2.796875 -17.585938 2.828125 -17.921875 C 2.859375 -18.265625 2.804688 -18.53125 2.671875 -18.71875 C 2.535156 -18.914062 2.253906 -19.097656 1.828125 -19.265625 C 1.410156 -19.441406 0.976562 -19.671875 0.53125 -19.953125 C 0.09375 -20.234375 -0.28125 -20.507812 -0.59375 -20.78125 C -1.03125 -21.195312 -1.335938 -21.679688 -1.515625 -22.234375 C -1.691406 -22.785156 -1.726562 -23.34375 -1.625 -23.90625 C -1.53125 -24.46875 -1.300781 -24.960938 -0.9375 -25.390625 C -0.425781 -25.984375 0.09375 -26.351562 0.625 -26.5 C 1.164062 -26.644531 1.648438 -26.601562 2.078125 -26.375 C 2.503906 -26.15625 2.800781 -25.789062 2.96875 -25.28125 C 3.132812 -24.78125 3.101562 -24.175781 2.875 -23.46875 C 2.75 -23.070312 2.582031 -22.695312 2.375 -22.34375 C 2.164062 -21.988281 1.941406 -21.648438 1.703125 -21.328125 C 1.859375 -21.265625 2.019531 -21.191406 2.1875 -21.109375 C 2.363281 -21.035156 2.53125 -20.957031 2.6875 -20.875 C 3.4375 -20.53125 3.984375 -20.175781 4.328125 -19.8125 C 4.671875 -19.445312 4.867188 -19.023438 4.921875 -18.546875 C 4.984375 -18.066406 4.9375 -17.472656 4.78125 -16.765625 C 4.632812 -16.054688 4.441406 -15.15625 4.203125 -14.0625 C 3.878906 -12.59375 3.804688 -11.507812 3.984375 -10.8125 C 4.171875 -10.113281 4.550781 -9.726562 5.125 -9.65625 C 5.707031 -9.582031 6.40625 -9.753906 7.21875 -10.171875 C 7.9375 -10.554688 8.613281 -11.082031 9.25 -11.75 C 9.882812 -12.425781 10.460938 -13.15625 10.984375 -13.9375 C 11.515625 -14.726562 11.972656 -15.46875 12.359375 -16.15625 C 12.804688 -16.9375 13.222656 -17.726562 13.609375 -18.53125 C 13.992188 -19.34375 14.363281 -20.164062 14.71875 -21 Z M -0.078125 -24.703125 C -0.265625 -24.441406 -0.367188 -24.132812 -0.390625 -23.78125 C -0.421875 -23.425781 -0.359375 -23.082031 -0.203125 -22.75 C -0.046875 -22.414062 0.1875 -22.132812 0.5 -21.90625 C 0.84375 -22.144531 1.144531 -22.425781 1.40625 -22.75 C 1.664062 -23.070312 1.867188 -23.410156 2.015625 -23.765625 C 2.242188 -24.398438 2.253906 -24.878906 2.046875 -25.203125 C 1.835938 -25.535156 1.523438 -25.671875 1.109375 -25.609375 C 0.703125 -25.546875 0.304688 -25.242188 -0.078125 -24.703125 Z M -0.078125 -24.703125 "/></g></g></g><g fill="#22c55e" fill-opacity="1"><g transform="translate(228.349138, 213.906226)"><g><path d="M 20.40625 -21.28125 C 20.5625 -21.414062 20.710938 -21.441406 20.859375 -21.359375 C 21.003906 -21.273438 21.09375 -21.15625 21.125 -21 C 21.164062 -20.851562 21.109375 -20.71875 20.953125 -20.59375 C 20.835938 -20.507812 20.460938 -20.265625 19.828125 -19.859375 C 19.203125 -19.453125 18.351562 -18.816406 17.28125 -17.953125 C 16.207031 -17.085938 14.957031 -15.925781 13.53125 -14.46875 C 13.46875 -12.46875 13.304688 -10.382812 13.046875 -8.21875 C 12.796875 -6.050781 12.453125 -3.851562 12.015625 -1.625 C 11.578125 0.59375 11.046875 2.789062 10.421875 4.96875 C 9.921875 6.707031 9.328125 8.050781 8.640625 9 C 7.960938 9.957031 7.265625 10.566406 6.546875 10.828125 C 5.828125 11.097656 5.144531 11.070312 4.5 10.75 C 3.863281 10.425781 3.328125 9.867188 2.890625 9.078125 C 2.453125 8.285156 2.179688 7.304688 2.078125 6.140625 C 1.972656 4.972656 2.097656 3.675781 2.453125 2.25 C 2.785156 0.976562 3.285156 -0.351562 3.953125 -1.75 C 4.628906 -3.144531 5.398438 -4.523438 6.265625 -5.890625 C 7.140625 -7.253906 8.050781 -8.5625 9 -9.8125 C 9.945312 -11.0625 10.859375 -12.179688 11.734375 -13.171875 C 11.734375 -13.640625 11.71875 -14.238281 11.6875 -14.96875 C 11.65625 -15.707031 11.613281 -16.519531 11.5625 -17.40625 C 11.519531 -18.300781 11.457031 -19.195312 11.375 -20.09375 C 11.289062 -21 11.1875 -21.84375 11.0625 -22.625 C 10.945312 -23.414062 10.8125 -24.070312 10.65625 -24.59375 C 10.507812 -25.125 10.335938 -25.460938 10.140625 -25.609375 C 9.941406 -25.765625 9.710938 -25.648438 9.453125 -25.265625 C 9.085938 -24.710938 8.75 -24.003906 8.4375 -23.140625 C 8.125 -22.285156 7.804688 -21.382812 7.484375 -20.4375 C 7.171875 -19.488281 6.828125 -18.570312 6.453125 -17.6875 C 6.085938 -16.8125 5.671875 -16.066406 5.203125 -15.453125 C 4.804688 -14.921875 4.351562 -14.523438 3.84375 -14.265625 C 3.34375 -14.015625 2.847656 -13.929688 2.359375 -14.015625 C 1.867188 -14.097656 1.4375 -14.378906 1.0625 -14.859375 C 0.6875 -15.347656 0.421875 -16.078125 0.265625 -17.046875 C 0.140625 -17.796875 0.0546875 -18.5625 0.015625 -19.34375 C -0.015625 -20.125 -0.03125 -20.882812 -0.03125 -21.625 C -0.0390625 -22.375 -0.0664062 -23.066406 -0.109375 -23.703125 C -0.160156 -24.347656 -0.273438 -24.882812 -0.453125 -25.3125 C -0.535156 -25.539062 -0.503906 -25.75 -0.359375 -25.9375 C -0.210938 -26.132812 -0.015625 -26.257812 0.234375 -26.3125 C 0.492188 -26.375 0.742188 -26.316406 0.984375 -26.140625 C 1.222656 -25.972656 1.398438 -25.644531 1.515625 -25.15625 C 1.609375 -24.6875 1.632812 -24.144531 1.59375 -23.53125 C 1.550781 -22.914062 1.476562 -22.25 1.375 -21.53125 C 1.269531 -20.820312 1.179688 -20.09375 1.109375 -19.34375 C 1.046875 -18.59375 1.035156 -17.859375 1.078125 -17.140625 C 1.140625 -16.273438 1.304688 -15.640625 1.578125 -15.234375 C 1.847656 -14.835938 2.175781 -14.613281 2.5625 -14.5625 C 2.945312 -14.519531 3.335938 -14.609375 3.734375 -14.828125 C 4.140625 -15.054688 4.507812 -15.367188 4.84375 -15.765625 C 5.382812 -16.421875 5.832031 -17.210938 6.1875 -18.140625 C 6.539062 -19.066406 6.835938 -20.019531 7.078125 -21 C 7.316406 -21.988281 7.535156 -22.910156 7.734375 -23.765625 C 7.941406 -24.628906 8.164062 -25.320312 8.40625 -25.84375 C 8.6875 -26.457031 9.046875 -26.878906 9.484375 -27.109375 C 9.929688 -27.335938 10.394531 -27.304688 10.875 -27.015625 C 11.363281 -26.734375 11.816406 -26.132812 12.234375 -25.21875 C 12.648438 -24.3125 12.984375 -23.03125 13.234375 -21.375 C 13.484375 -19.71875 13.582031 -17.632812 13.53125 -15.125 C 14.601562 -16.226562 15.710938 -17.296875 16.859375 -18.328125 C 18.003906 -19.367188 19.1875 -20.351562 20.40625 -21.28125 Z M 9.703125 4.703125 C 10.160156 3.566406 10.53125 2.269531 10.8125 0.8125 C 11.09375 -0.644531 11.300781 -2.15625 11.4375 -3.71875 C 11.582031 -5.289062 11.675781 -6.832031 11.71875 -8.34375 C 11.757812 -9.863281 11.773438 -11.265625 11.765625 -12.546875 C 10.878906 -11.523438 10.007812 -10.414062 9.15625 -9.21875 C 8.300781 -8.019531 7.492188 -6.765625 6.734375 -5.453125 C 5.984375 -4.140625 5.335938 -2.8125 4.796875 -1.46875 C 4.253906 -0.125 3.863281 1.203125 3.625 2.515625 C 3.351562 3.910156 3.285156 5.128906 3.421875 6.171875 C 3.554688 7.210938 3.832031 8.007812 4.25 8.5625 C 4.675781 9.125 5.191406 9.390625 5.796875 9.359375 C 6.410156 9.328125 7.050781 8.9375 7.71875 8.1875 C 8.394531 7.445312 9.054688 6.285156 9.703125 4.703125 Z M 9.703125 4.703125 "/></g></g></g><g fill="#22c55e" fill-opacity="1"><g transform="translate(248.677174, 213.906226)"><g><path d="M 13.3125 -21.21875 C 13.488281 -21.375 13.65625 -21.398438 13.8125 -21.296875 C 13.96875 -21.191406 14.054688 -21.050781 14.078125 -20.875 C 14.097656 -20.695312 14 -20.5625 13.78125 -20.46875 C 13.25 -20.257812 12.710938 -20.066406 12.171875 -19.890625 C 11.640625 -19.710938 11.0625 -19.609375 10.4375 -19.578125 C 9.289062 -19.515625 8.226562 -19.710938 7.25 -20.171875 C 6.269531 -20.628906 5.332031 -21.207031 4.4375 -21.90625 C 4.5625 -21.519531 4.6875 -21.140625 4.8125 -20.765625 C 4.945312 -20.390625 5.070312 -20.007812 5.1875 -19.625 C 5.519531 -18.519531 5.613281 -17.582031 5.46875 -16.8125 C 5.320312 -16.050781 5.03125 -15.46875 4.59375 -15.0625 C 4.15625 -14.65625 3.65625 -14.421875 3.09375 -14.359375 C 2.53125 -14.304688 1.976562 -14.4375 1.4375 -14.75 C 0.90625 -15.0625 0.472656 -15.554688 0.140625 -16.234375 C -0.191406 -16.910156 -0.34375 -17.78125 -0.3125 -18.84375 C -0.28125 -19.78125 -0.0976562 -20.738281 0.234375 -21.71875 C 0.578125 -22.695312 1.0625 -23.546875 1.6875 -24.265625 C 1.363281 -24.535156 1.203125 -24.8125 1.203125 -25.09375 C 1.203125 -25.375 1.289062 -25.613281 1.46875 -25.8125 C 1.65625 -26.007812 1.875 -26.128906 2.125 -26.171875 C 2.382812 -26.210938 2.617188 -26.117188 2.828125 -25.890625 C 2.992188 -25.734375 3.128906 -25.5625 3.234375 -25.375 C 3.347656 -25.195312 3.421875 -25.082031 3.453125 -25.03125 C 3.773438 -24.882812 3.960938 -24.613281 4.015625 -24.21875 C 4.523438 -23.507812 5.109375 -22.816406 5.765625 -22.140625 C 6.421875 -21.472656 7.140625 -20.929688 7.921875 -20.515625 C 8.703125 -20.097656 9.535156 -19.914062 10.421875 -19.96875 C 10.941406 -20 11.453125 -20.125 11.953125 -20.34375 C 12.460938 -20.570312 12.914062 -20.863281 13.3125 -21.21875 Z M 0.859375 -18.75 C 0.753906 -17.914062 0.800781 -17.222656 1 -16.671875 C 1.207031 -16.128906 1.5 -15.734375 1.875 -15.484375 C 2.257812 -15.242188 2.65625 -15.140625 3.0625 -15.171875 C 3.46875 -15.210938 3.828125 -15.398438 4.140625 -15.734375 C 4.460938 -16.078125 4.675781 -16.554688 4.78125 -17.171875 C 4.882812 -17.785156 4.800781 -18.539062 4.53125 -19.4375 C 4.375 -20 4.15625 -20.570312 3.875 -21.15625 C 3.59375 -21.738281 3.269531 -22.300781 2.90625 -22.84375 C 2.4375 -22.445312 2.007812 -21.894531 1.625 -21.1875 C 1.25 -20.488281 0.992188 -19.675781 0.859375 -18.75 Z M 0.859375 -18.75 "/></g></g></g><g fill="#22c55e" fill-opacity="1"><g transform="translate(261.925197, 213.906226)"><g><path d="M 21.90625 -21.265625 C 21.976562 -21.453125 22.09375 -21.554688 22.25 -21.578125 C 22.40625 -21.609375 22.546875 -21.5625 22.671875 -21.4375 C 22.804688 -21.320312 22.828125 -21.148438 22.734375 -20.921875 C 22.285156 -19.804688 21.753906 -18.632812 21.140625 -17.40625 C 20.535156 -16.1875 19.875 -15.085938 19.15625 -14.109375 C 18.476562 -13.210938 17.75 -12.492188 16.96875 -11.953125 C 16.195312 -11.421875 15.429688 -11.175781 14.671875 -11.21875 C 13.910156 -11.257812 13.210938 -11.679688 12.578125 -12.484375 C 12.128906 -13.054688 11.757812 -13.757812 11.46875 -14.59375 C 11.1875 -15.425781 10.953125 -16.320312 10.765625 -17.28125 C 10.578125 -18.238281 10.40625 -19.1875 10.25 -20.125 C 10.101562 -21.0625 9.925781 -21.910156 9.71875 -22.671875 C 9.507812 -23.441406 9.242188 -24.054688 8.921875 -24.515625 C 8.609375 -24.984375 8.195312 -25.21875 7.6875 -25.21875 C 7.132812 -25.21875 6.671875 -24.988281 6.296875 -24.53125 C 5.921875 -24.082031 5.609375 -23.472656 5.359375 -22.703125 C 5.109375 -21.929688 4.890625 -21.070312 4.703125 -20.125 C 4.523438 -19.1875 4.363281 -18.226562 4.21875 -17.25 C 4.082031 -16.28125 3.929688 -15.351562 3.765625 -14.46875 C 3.609375 -13.59375 3.414062 -12.832031 3.1875 -12.1875 C 2.96875 -11.550781 2.671875 -11.085938 2.296875 -10.796875 C 1.921875 -10.515625 1.535156 -10.414062 1.140625 -10.5 C 0.742188 -10.582031 0.394531 -10.875 0.09375 -11.375 C -0.195312 -11.882812 -0.363281 -12.601562 -0.40625 -13.53125 C -0.457031 -14.457031 -0.429688 -15.414062 -0.328125 -16.40625 C -0.222656 -17.40625 -0.128906 -18.351562 -0.046875 -19.25 C 0.0351562 -20.15625 0.00390625 -20.929688 -0.140625 -21.578125 C -0.191406 -21.867188 -0.125 -22.082031 0.0625 -22.21875 C 0.257812 -22.363281 0.476562 -22.40625 0.71875 -22.34375 C 0.957031 -22.289062 1.109375 -22.125 1.171875 -21.84375 C 1.253906 -21.40625 1.316406 -20.816406 1.359375 -20.078125 C 1.398438 -19.347656 1.425781 -18.566406 1.4375 -17.734375 C 1.457031 -16.898438 1.472656 -16.101562 1.484375 -15.34375 C 1.503906 -14.582031 1.535156 -13.960938 1.578125 -13.484375 C 1.773438 -14.128906 1.960938 -14.898438 2.140625 -15.796875 C 2.328125 -16.703125 2.53125 -17.648438 2.75 -18.640625 C 2.976562 -19.640625 3.238281 -20.601562 3.53125 -21.53125 C 3.832031 -22.46875 4.179688 -23.304688 4.578125 -24.046875 C 4.984375 -24.785156 5.457031 -25.34375 6 -25.71875 C 6.539062 -26.101562 7.171875 -26.234375 7.890625 -26.109375 C 8.546875 -25.992188 9.054688 -25.664062 9.421875 -25.125 C 9.796875 -24.59375 10.082031 -23.925781 10.28125 -23.125 C 10.476562 -22.332031 10.632812 -21.457031 10.75 -20.5 C 10.875 -19.550781 11.007812 -18.597656 11.15625 -17.640625 C 11.300781 -16.679688 11.5 -15.769531 11.75 -14.90625 C 12.007812 -14.050781 12.378906 -13.320312 12.859375 -12.71875 C 13.453125 -11.96875 14.097656 -11.585938 14.796875 -11.578125 C 15.492188 -11.566406 16.1875 -11.828125 16.875 -12.359375 C 17.570312 -12.890625 18.210938 -13.5625 18.796875 -14.375 C 19.492188 -15.414062 20.101562 -16.53125 20.625 -17.71875 C 21.144531 -18.914062 21.570312 -20.097656 21.90625 -21.265625 Z M 21.90625 -21.265625 "/></g></g></g><g fill="#22c55e" fill-opacity="1"><g transform="translate(283.765238, 213.906226)"><g><path d="M 13.3125 -21.21875 C 13.488281 -21.375 13.65625 -21.398438 13.8125 -21.296875 C 13.96875 -21.191406 14.054688 -21.050781 14.078125 -20.875 C 14.097656 -20.695312 14 -20.5625 13.78125 -20.46875 C 13.25 -20.257812 12.710938 -20.066406 12.171875 -19.890625 C 11.640625 -19.710938 11.0625 -19.609375 10.4375 -19.578125 C 9.289062 -19.515625 8.226562 -19.710938 7.25 -20.171875 C 6.269531 -20.628906 5.332031 -21.207031 4.4375 -21.90625 C 4.5625 -21.519531 4.6875 -21.140625 4.8125 -20.765625 C 4.945312 -20.390625 5.070312 -20.007812 5.1875 -19.625 C 5.519531 -18.519531 5.613281 -17.582031 5.46875 -16.8125 C 5.320312 -16.050781 5.03125 -15.46875 4.59375 -15.0625 C 4.15625 -14.65625 3.65625 -14.421875 3.09375 -14.359375 C 2.53125 -14.304688 1.976562 -14.4375 1.4375 -14.75 C 0.90625 -15.0625 0.472656 -15.554688 0.140625 -16.234375 C -0.191406 -16.910156 -0.34375 -17.78125 -0.3125 -18.84375 C -0.28125 -19.78125 -0.0976562 -20.738281 0.234375 -21.71875 C 0.578125 -22.695312 1.0625 -23.546875 1.6875 -24.265625 C 1.363281 -24.535156 1.203125 -24.8125 1.203125 -25.09375 C 1.203125 -25.375 1.289062 -25.613281 1.46875 -25.8125 C 1.65625 -26.007812 1.875 -26.128906 2.125 -26.171875 C 2.382812 -26.210938 2.617188 -26.117188 2.828125 -25.890625 C 2.992188 -25.734375 3.128906 -25.5625 3.234375 -25.375 C 3.347656 -25.195312 3.421875 -25.082031 3.453125 -25.03125 C 3.773438 -24.882812 3.960938 -24.613281 4.015625 -24.21875 C 4.523438 -23.507812 5.109375 -22.816406 5.765625 -22.140625 C 6.421875 -21.472656 7.140625 -20.929688 7.921875 -20.515625 C 8.703125 -20.097656 9.535156 -19.914062 10.421875 -19.96875 C 10.941406 -20 11.453125 -20.125 11.953125 -20.34375 C 12.460938 -20.570312 12.914062 -20.863281 13.3125 -21.21875 Z M 0.859375 -18.75 C 0.753906 -17.914062 0.800781 -17.222656 1 -16.671875 C 1.207031 -16.128906 1.5 -15.734375 1.875 -15.484375 C 2.257812 -15.242188 2.65625 -15.140625 3.0625 -15.171875 C 3.46875 -15.210938 3.828125 -15.398438 4.140625 -15.734375 C 4.460938 -16.078125 4.675781 -16.554688 4.78125 -17.171875 C 4.882812 -17.785156 4.800781 -18.539062 4.53125 -19.4375 C 4.375 -20 4.15625 -20.570312 3.875 -21.15625 C 3.59375 -21.738281 3.269531 -22.300781 2.90625 -22.84375 C 2.4375 -22.445312 2.007812 -21.894531 1.625 -21.1875 C 1.25 -20.488281 0.992188 -19.675781 0.859375 -18.75 Z M 0.859375 -18.75 "/></g></g></g><g fill="#1e1815" fill-opacity="1"><g transform="translate(102.150012, 228.806251)"><g><path d="M 3.171875 0.171875 C 2.617188 0.171875 2.132812 0.113281 1.71875 0 C 1.3125 -0.113281 0.9375 -0.289062 0.59375 -0.53125 L 0.953125 -1.28125 C 1.566406 -0.832031 2.304688 -0.609375 3.171875 -0.609375 C 3.671875 -0.609375 4.082031 -0.726562 4.40625 -0.96875 C 4.738281 -1.21875 4.90625 -1.550781 4.90625 -1.96875 C 4.90625 -2.226562 4.828125 -2.441406 4.671875 -2.609375 C 4.515625 -2.785156 4.320312 -2.925781 4.09375 -3.03125 C 3.863281 -3.144531 3.546875 -3.273438 3.140625 -3.421875 C 2.640625 -3.597656 2.238281 -3.757812 1.9375 -3.90625 C 1.644531 -4.050781 1.394531 -4.253906 1.1875 -4.515625 C 0.976562 -4.785156 0.875 -5.132812 0.875 -5.5625 C 0.875 -6.21875 1.109375 -6.722656 1.578125 -7.078125 C 2.046875 -7.441406 2.648438 -7.625 3.390625 -7.625 C 4.265625 -7.625 5.03125 -7.394531 5.6875 -6.9375 L 5.328125 -6.203125 C 4.742188 -6.628906 4.101562 -6.84375 3.40625 -6.84375 C 2.957031 -6.84375 2.585938 -6.734375 2.296875 -6.515625 C 2.015625 -6.304688 1.875 -6 1.875 -5.59375 C 1.875 -5.34375 1.953125 -5.132812 2.109375 -4.96875 C 2.265625 -4.800781 2.457031 -4.664062 2.6875 -4.5625 C 2.914062 -4.457031 3.226562 -4.332031 3.625 -4.1875 C 4.113281 -4.007812 4.507812 -3.84375 4.8125 -3.6875 C 5.113281 -3.539062 5.367188 -3.328125 5.578125 -3.046875 C 5.796875 -2.773438 5.90625 -2.429688 5.90625 -2.015625 C 5.90625 -1.566406 5.789062 -1.175781 5.5625 -0.84375 C 5.332031 -0.519531 5.007812 -0.269531 4.59375 -0.09375 C 4.1875 0.0820312 3.710938 0.171875 3.171875 0.171875 Z M 3.171875 0.171875 "/></g></g></g><g fill="#1e1815" fill-opacity="1"><g transform="translate(111.946452, 228.806251)"><g><path d="M 4.28125 0.171875 C 3.5 0.171875 2.832031 0 2.28125 -0.34375 C 1.726562 -0.695312 1.3125 -1.171875 1.03125 -1.765625 C 0.75 -2.359375 0.609375 -3.015625 0.609375 -3.734375 C 0.609375 -4.453125 0.75 -5.101562 1.03125 -5.6875 C 1.3125 -6.28125 1.726562 -6.75 2.28125 -7.09375 C 2.832031 -7.445312 3.5 -7.625 4.28125 -7.625 C 5.050781 -7.625 5.710938 -7.445312 6.265625 -7.09375 C 6.828125 -6.75 7.242188 -6.28125 7.515625 -5.6875 C 7.796875 -5.101562 7.9375 -4.453125 7.9375 -3.734375 C 7.9375 -3.015625 7.796875 -2.359375 7.515625 -1.765625 C 7.242188 -1.171875 6.828125 -0.695312 6.265625 -0.34375 C 5.710938 0 5.050781 0.171875 4.28125 0.171875 Z M 4.28125 -0.609375 C 4.832031 -0.609375 5.304688 -0.742188 5.703125 -1.015625 C 6.097656 -1.285156 6.398438 -1.65625 6.609375 -2.125 C 6.816406 -2.601562 6.921875 -3.140625 6.921875 -3.734375 C 6.921875 -4.328125 6.816406 -4.859375 6.609375 -5.328125 C 6.398438 -5.796875 6.097656 -6.164062 5.703125 -6.4375 C 5.304688 -6.707031 4.832031 -6.84375 4.28125 -6.84375 C 3.71875 -6.84375 3.238281 -6.707031 2.84375 -6.4375 C 2.445312 -6.164062 2.144531 -5.796875 1.9375 -5.328125 C 1.726562 -4.859375 1.625 -4.328125 1.625 -3.734375 C 1.625 -3.140625 1.726562 -2.601562 1.9375 -2.125 C 2.144531 -1.65625 2.445312 -1.285156 2.84375 -1.015625 C 3.238281 -0.742188 3.71875 -0.609375 4.28125 -0.609375 Z M 4.28125 -0.609375 "/></g></g></g><g fill="#1e1815" fill-opacity="1"><g transform="translate(123.787447, 228.806251)"><g><path d="M 2.234375 -6.703125 L 2.234375 -4.140625 L 5.140625 -4.140625 L 5.140625 -3.359375 L 2.234375 -3.359375 L 2.234375 0 L 1.21875 0 L 1.21875 -7.484375 L 5.59375 -7.484375 L 5.59375 -6.703125 Z M 2.234375 -6.703125 "/></g></g></g><g fill="#1e1815" fill-opacity="1"><g transform="translate(132.96832, 228.806251)"><g><path d="M 6.421875 -6.703125 L 3.90625 -6.703125 L 3.90625 0 L 2.890625 0 L 2.890625 -6.703125 L 0.375 -6.703125 L 0.375 -7.484375 L 6.421875 -7.484375 Z M 6.421875 -6.703125 "/></g></g></g><g fill="#1e1815" fill-opacity="1"><g transform="translate(143.061551, 228.806251)"><g><path d="M 10.96875 -7.484375 L 8.53125 0.09375 L 7.5625 0.09375 L 5.578125 -6.09375 L 3.59375 0.09375 L 2.625 0.09375 L 0.3125 -7.484375 L 1.34375 -7.484375 L 3.125 -1.140625 L 5.140625 -7.484375 L 6.03125 -7.484375 L 8.0625 -1.109375 L 9.9375 -7.484375 Z M 10.96875 -7.484375 "/></g></g></g><g fill="#1e1815" fill-opacity="1"><g transform="translate(157.617622, 228.806251)"><g><path d="M 5.078125 -2.328125 L 2.0625 -2.328125 L 1.21875 0 L 0.203125 0 L 3.109375 -7.578125 L 4.046875 -7.578125 L 6.96875 0 L 5.921875 0 Z M 4.796875 -3.078125 L 3.578125 -6.40625 L 2.359375 -3.078125 Z M 4.796875 -3.078125 "/></g></g></g><g fill="#1e1815" fill-opacity="1"><g transform="translate(168.084582, 228.806251)"><g><path d="M 3.59375 -3.28125 L 2.234375 -3.28125 L 2.234375 0 L 1.21875 0 L 1.21875 -7.484375 L 3.734375 -7.484375 C 4.578125 -7.484375 5.21875 -7.296875 5.65625 -6.921875 C 6.101562 -6.554688 6.328125 -6.054688 6.328125 -5.421875 C 6.328125 -4.890625 6.179688 -4.453125 5.890625 -4.109375 C 5.609375 -3.765625 5.1875 -3.539062 4.625 -3.4375 L 7.078125 0 L 5.890625 0 Z M 2.234375 -4.0625 L 3.734375 -4.0625 C 4.785156 -4.0625 5.3125 -4.503906 5.3125 -5.390625 C 5.3125 -5.804688 5.175781 -6.128906 4.90625 -6.359375 C 4.632812 -6.597656 4.242188 -6.71875 3.734375 -6.71875 L 2.234375 -6.71875 Z M 2.234375 -4.0625 "/></g></g></g><g fill="#1e1815" fill-opacity="1"><g transform="translate(178.870317, 228.806251)"><g><path d="M 5.8125 -0.765625 L 5.8125 0 L 1.21875 0 L 1.21875 -7.484375 L 5.59375 -7.484375 L 5.59375 -6.71875 L 2.234375 -6.71875 L 2.234375 -4.328125 L 5.140625 -4.328125 L 5.140625 -3.578125 L 2.234375 -3.578125 L 2.234375 -0.765625 Z M 5.8125 -0.765625 "/></g></g></g><g fill="#1e1815" fill-opacity="1"><g transform="translate(188.600805, 228.806251)"><g/></g></g><g fill="#1e1815" fill-opacity="1"><g transform="translate(194.648892, 228.806251)"><g><path d="M 5.8125 -0.765625 L 5.8125 0 L 1.21875 0 L 1.21875 -7.484375 L 5.59375 -7.484375 L 5.59375 -6.71875 L 2.234375 -6.71875 L 2.234375 -4.328125 L 5.140625 -4.328125 L 5.140625 -3.578125 L 2.234375 -3.578125 L 2.234375 -0.765625 Z M 5.8125 -0.765625 "/></g></g></g><g fill="#1e1815" fill-opacity="1"><g transform="translate(204.379379, 228.806251)"><g><path d="M 7.28125 -7.484375 L 7.28125 0 L 6.40625 0.015625 L 2.171875 -5.859375 L 2.234375 -3.25 L 2.234375 0 L 1.21875 0 L 1.21875 -7.484375 L 2.09375 -7.484375 L 6.328125 -1.59375 L 6.265625 -4.515625 L 6.265625 -7.484375 Z M 7.28125 -7.484375 "/></g></g></g><g fill="#1e1815" fill-opacity="1"><g transform="translate(216.187393, 228.806251)"><g><path d="M 7.046875 -3.5 L 7.046875 -0.421875 C 6.753906 -0.253906 6.375 -0.113281 5.90625 0 C 5.445312 0.113281 4.941406 0.171875 4.390625 0.171875 C 3.566406 0.171875 2.875 -0.00390625 2.3125 -0.359375 C 1.75 -0.722656 1.320312 -1.203125 1.03125 -1.796875 C 0.75 -2.390625 0.609375 -3.039062 0.609375 -3.75 C 0.609375 -4.457031 0.753906 -5.101562 1.046875 -5.6875 C 1.347656 -6.269531 1.789062 -6.738281 2.375 -7.09375 C 2.957031 -7.445312 3.671875 -7.625 4.515625 -7.625 C 5.015625 -7.625 5.476562 -7.546875 5.90625 -7.390625 C 6.332031 -7.234375 6.695312 -7.007812 7 -6.71875 L 6.578125 -6.046875 C 6.335938 -6.285156 6.035156 -6.476562 5.671875 -6.625 C 5.304688 -6.769531 4.921875 -6.84375 4.515625 -6.84375 C 3.898438 -6.84375 3.375 -6.707031 2.9375 -6.4375 C 2.507812 -6.164062 2.179688 -5.796875 1.953125 -5.328125 C 1.734375 -4.859375 1.625 -4.328125 1.625 -3.734375 C 1.625 -3.140625 1.726562 -2.609375 1.9375 -2.140625 C 2.15625 -1.671875 2.472656 -1.296875 2.890625 -1.015625 C 3.304688 -0.742188 3.804688 -0.609375 4.390625 -0.609375 C 5.003906 -0.609375 5.5625 -0.6875 6.0625 -0.84375 L 6.0625 -3.5 Z M 7.046875 -3.5 "/></g></g></g><g fill="#1e1815" fill-opacity="1"><g transform="translate(227.324885, 228.806251)"><g><path d="M 1.21875 -7.484375 L 2.234375 -7.484375 L 2.234375 0 L 1.21875 0 Z M 1.21875 -7.484375 "/></g></g></g><g fill="#1e1815" fill-opacity="1"><g transform="translate(234.087462, 228.806251)"><g><path d="M 7.28125 -7.484375 L 7.28125 0 L 6.40625 0.015625 L 2.171875 -5.859375 L 2.234375 -3.25 L 2.234375 0 L 1.21875 0 L 1.21875 -7.484375 L 2.09375 -7.484375 L 6.328125 -1.59375 L 6.265625 -4.515625 L 6.265625 -7.484375 Z M 7.28125 -7.484375 "/></g></g></g><g fill="#1e1815" fill-opacity="1"><g transform="translate(245.895475, 228.806251)"><g><path d="M 5.8125 -0.765625 L 5.8125 0 L 1.21875 0 L 1.21875 -7.484375 L 5.59375 -7.484375 L 5.59375 -6.71875 L 2.234375 -6.71875 L 2.234375 -4.328125 L 5.140625 -4.328125 L 5.140625 -3.578125 L 2.234375 -3.578125 L 2.234375 -0.765625 Z M 5.8125 -0.765625 "/></g></g></g><g fill="#1e1815" fill-opacity="1"><g transform="translate(255.625962, 228.806251)"><g><path d="M 5.8125 -0.765625 L 5.8125 0 L 1.21875 0 L 1.21875 -7.484375 L 5.59375 -7.484375 L 5.59375 -6.71875 L 2.234375 -6.71875 L 2.234375 -4.328125 L 5.140625 -4.328125 L 5.140625 -3.578125 L 2.234375 -3.578125 L 2.234375 -0.765625 Z M 5.8125 -0.765625 "/></g></g></g><g fill="#1e1815" fill-opacity="1"><g transform="translate(265.356449, 228.806251)"><g><path d="M 3.59375 -3.28125 L 2.234375 -3.28125 L 2.234375 0 L 1.21875 0 L 1.21875 -7.484375 L 3.734375 -7.484375 C 4.578125 -7.484375 5.21875 -7.296875 5.65625 -6.921875 C 6.101562 -6.554688 6.328125 -6.054688 6.328125 -5.421875 C 6.328125 -4.890625 6.179688 -4.453125 5.890625 -4.109375 C 5.609375 -3.765625 5.1875 -3.539062 4.625 -3.4375 L 7.078125 0 L 5.890625 0 Z M 2.234375 -4.0625 L 3.734375 -4.0625 C 4.785156 -4.0625 5.3125 -4.503906 5.3125 -5.390625 C 5.3125 -5.804688 5.175781 -6.128906 4.90625 -6.359375 C 4.632812 -6.597656 4.242188 -6.71875 3.734375 -6.71875 L 2.234375 -6.71875 Z M 2.234375 -4.0625 "/></g></g></g></svg>